<?xml version="1.0" encoding="utf-8"?>
<svg version="1.2" baseProfile="tiny-ps" xmlns="http://www.w3.org/2000/svg" width="152px" height="152px" viewBox="0 0 152 152" preserveAspectRatio="xMidYMid meet">
 <g fill="#000000">
  <path d="M 0 76 c 0 -76 0 -76 76 -76 76 0 76 0 76 76 0 76 0 76 -76 76 -76 0 -76 0 -76 -76 z  m 96.25 44.50 c 3.50 -1.70 6.95 -5.40 8.20 -8.75 0.95 -2.50 1.05 -3.90 1.05 -13.50 0 -9.35 -0.10 -11.05 -0.95 -13.25 -1.25 -3.20 -3.50 -6.05 -6.30 -7.85 -2.20 -1.35 -2.25 -1.50 -2.25 -3.95 0 -2.50 0.05 -2.55 2.45 -4.10 2.70 -1.75 5.65 -5.80 6.55 -8.85 0.40 -1.30 0.55 -5.05 0.40 -10.50 -0.15 -7.70 -0.25 -8.70 -1.30 -10.65 -1.80 -3.40 -4.60 -6.15 -7.85 -7.70 -3 -1.40 -3 -1.40 -20.25 -1.40 -17.25 0 -17.25 0 -20.25 1.40 -3.25 1.55 -6.05 4.30 -7.85 7.70 -1.05 1.95 -1.15 2.95 -1.30 10.75 -0.15 6.95 0 9.10 0.60 11.05 1.10 3.35 3.40 6.25 6.35 8.15 2.40 1.60 2.45 1.65 2.45 4.15 0 2.50 -0.05 2.60 -2.50 4.20 -2.95 1.90 -5.15 4.75 -6.25 8.10 -0.65 2 -0.80 4.35 -0.65 13.60 0.15 11.25 0.15 11.25 1.65 14.15 1.80 3.50 5.25 6.55 8.85 7.80 2.40 0.85 4.20 0.95 19.65 0.80 16.90 -0.10 17 -0.10 19.50 -1.35 z "/>
  <path d="M 63.40 109.70 c -2.55 -1.35 -2.90 -2.80 -2.90 -12.50 0 -8.80 0 -8.80 1.70 -10.50 1.70 -1.70 1.70 -1.70 13.75 -1.70 12.05 0 12.05 0 13.65 1.45 1.65 1.45 1.65 1.45 1.80 10.45 0.25 13.90 0.60 13.60 -15.50 13.60 -8.90 -0.05 -11.45 -0.20 -12.50 -0.80 z "/>
  <path d="M 63.65 63.25 c -2.70 -1.15 -3.15 -2.75 -3.15 -10.95 0 -7 0.05 -7.25 1.30 -8.75 0.70 -0.85 2.10 -1.75 3.10 -2.05 2.40 -0.65 19.80 -0.65 22.20 0 1 0.30 2.40 1.20 3.10 2.05 1.25 1.50 1.30 1.75 1.30 8.75 0 11.65 -0.05 11.70 -15.60 11.70 -7.95 -0.05 -11.05 -0.20 -12.25 -0.75 z "/>
 </g>
 <g fill="#ffffff">
  <path d="M 55.60 122.55 c -3.60 -1.25 -7.05 -4.30 -8.85 -7.80 -1.50 -2.95 -1.50 -2.95 -1.65 -15.65 -0.10 -10.60 0 -13.10 0.65 -15.10 1.10 -3.35 3.30 -6.20 6.25 -8.10 3.25 -2.15 3.30 -3.25 0.05 -5.35 -2.95 -1.90 -5.25 -4.80 -6.30 -8.10 -0.70 -2 -0.80 -4.30 -0.65 -12.55 0.15 -9.45 0.25 -10.30 1.30 -12.30 1.80 -3.40 4.60 -6.15 7.85 -7.70 3 -1.40 3 -1.40 21.75 -1.40 18.75 0 18.75 0 21.75 1.40 3.25 1.55 6.05 4.30 7.85 7.70 1.05 2 1.15 2.85 1.30 12.15 0.10 6.55 0 10.70 -0.40 12 -0.90 3.05 -3.85 7.10 -6.55 8.85 -3.15 2.05 -3.20 3.15 -0.20 5.05 2.80 1.80 5.05 4.65 6.30 7.85 0.85 2.20 0.95 3.95 0.95 14.75 0 11.15 -0.10 12.45 -1.05 15 -1.25 3.35 -4.70 7.05 -8.20 8.75 -2.50 1.25 -2.50 1.25 -21 1.35 -16.90 0.15 -18.75 0.05 -21.15 -0.80 z  m 31.40 -14.30 c 2.70 -1.40 3.10 -2.95 2.90 -11.35 -0.15 -7.50 -0.15 -7.50 -1.80 -8.95 -1.60 -1.45 -1.60 -1.45 -12.15 -1.45 -10.55 0 -10.55 0 -12.25 1.70 -1.70 1.70 -1.70 1.70 -1.70 9 0 11.70 0.05 11.75 13.90 11.80 7.70 0 9.95 -0.15 11.10 -0.75 z  m -0.20 -46.55 c 2.70 -1.30 3.20 -2.80 3.20 -9.40 0 -5.40 -0.05 -5.80 -1.30 -7.25 -1.80 -2.15 -3.85 -2.55 -12.70 -2.55 -8.85 0 -10.90 0.40 -12.70 2.55 -1.25 1.45 -1.30 1.85 -1.30 7.25 0 9.80 0.50 10.15 13.90 10.20 7.50 0 9.50 -0.15 10.90 -0.80 z "/>
 </g>
</svg>